<?xml version="1.0" standalone="no"?><!DOCTYPE svg PUBLIC "-//W3C//DTD SVG 1.1//EN" "http://www.w3.org/Graphics/SVG/1.1/DTD/svg11.dtd">
<svg x="0.0000mm" y="0.0000mm" width="34.9250mm" height="34.9250mm" viewBox="0.0000 0.0000 34.9250 34.9250" version="1.1" xmlns="http://www.w3.org/2000/svg" shape-rendering="crispEdges">
<title>TBarCode - 11.15.0.16817</title>
<desc>BarCode licensed to MEM:TEC-IT Datenverarbeitung GmbH Internal License</desc>
<g fill="rgb(0%,0%,0%)">
</g>
<g fill="rgb(100%,100%,100%)">
<rect x="0.0000" y="0.0000" width="34.9250" height="34.9250" />
</g>
<g fill="rgb(0%,0%,0%)">
</g>
<g fill="rgb(0%,0%,0%)">
<rect x="0.0000" y="0.0000" width="1.0583" height="1.0583" />
<rect x="1.0583" y="0.0000" width="1.0583" height="1.0583" />
<rect x="2.1167" y="0.0000" width="1.0583" height="1.0583" />
<rect x="3.1750" y="0.0000" width="1.0583" height="1.0583" />
<rect x="4.2333" y="0.0000" width="1.0583" height="1.0583" />
<rect x="5.2917" y="0.0000" width="1.0583" height="1.0583" />
<rect x="6.3500" y="0.0000" width="1.0583" height="1.0583" />
<rect x="8.4667" y="0.0000" width="1.0583" height="1.0583" />
<rect x="11.6417" y="0.0000" width="1.0583" height="1.0583" />
<rect x="12.7000" y="0.0000" width="1.0583" height="1.0583" />
<rect x="13.7583" y="0.0000" width="1.0583" height="1.0583" />
<rect x="15.8750" y="0.0000" width="1.0583" height="1.0583" />
<rect x="19.0500" y="0.0000" width="1.0583" height="1.0583" />
<rect x="24.3417" y="0.0000" width="1.0583" height="1.0583" />
<rect x="27.5167" y="0.0000" width="1.0583" height="1.0583" />
<rect x="28.5750" y="0.0000" width="1.0583" height="1.0583" />
<rect x="29.6333" y="0.0000" width="1.0583" height="1.0583" />
<rect x="30.6917" y="0.0000" width="1.0583" height="1.0583" />
<rect x="31.7500" y="0.0000" width="1.0583" height="1.0583" />
<rect x="32.8083" y="0.0000" width="1.0583" height="1.0583" />
<rect x="33.8667" y="0.0000" width="1.0583" height="1.0583" />
</g>
<g fill="rgb(0%,0%,0%)">
<rect x="0.0000" y="1.0583" width="1.0583" height="1.0583" />
<rect x="6.3500" y="1.0583" width="1.0583" height="1.0583" />
<rect x="9.5250" y="1.0583" width="1.0583" height="1.0583" />
<rect x="10.5833" y="1.0583" width="1.0583" height="1.0583" />
<rect x="11.6417" y="1.0583" width="1.0583" height="1.0583" />
<rect x="12.7000" y="1.0583" width="1.0583" height="1.0583" />
<rect x="13.7583" y="1.0583" width="1.0583" height="1.0583" />
<rect x="14.8167" y="1.0583" width="1.0583" height="1.0583" />
<rect x="19.0500" y="1.0583" width="1.0583" height="1.0583" />
<rect x="20.1083" y="1.0583" width="1.0583" height="1.0583" />
<rect x="27.5167" y="1.0583" width="1.0583" height="1.0583" />
<rect x="33.8667" y="1.0583" width="1.0583" height="1.0583" />
</g>
<g fill="rgb(0%,0%,0%)">
<rect x="0.0000" y="2.1167" width="1.0583" height="1.0583" />
<rect x="2.1167" y="2.1167" width="1.0583" height="1.0583" />
<rect x="3.1750" y="2.1167" width="1.0583" height="1.0583" />
<rect x="4.2333" y="2.1167" width="1.0583" height="1.0583" />
<rect x="6.3500" y="2.1167" width="1.0583" height="1.0583" />
<rect x="10.5833" y="2.1167" width="1.0583" height="1.0583" />
<rect x="12.7000" y="2.1167" width="1.0583" height="1.0583" />
<rect x="14.8167" y="2.1167" width="1.0583" height="1.0583" />
<rect x="15.8750" y="2.1167" width="1.0583" height="1.0583" />
<rect x="16.9333" y="2.1167" width="1.0583" height="1.0583" />
<rect x="17.9917" y="2.1167" width="1.0583" height="1.0583" />
<rect x="19.0500" y="2.1167" width="1.0583" height="1.0583" />
<rect x="20.1083" y="2.1167" width="1.0583" height="1.0583" />
<rect x="22.2250" y="2.1167" width="1.0583" height="1.0583" />
<rect x="24.3417" y="2.1167" width="1.0583" height="1.0583" />
<rect x="27.5167" y="2.1167" width="1.0583" height="1.0583" />
<rect x="29.6333" y="2.1167" width="1.0583" height="1.0583" />
<rect x="30.6917" y="2.1167" width="1.0583" height="1.0583" />
<rect x="31.7500" y="2.1167" width="1.0583" height="1.0583" />
<rect x="33.8667" y="2.1167" width="1.0583" height="1.0583" />
</g>
<g fill="rgb(0%,0%,0%)">
<rect x="0.0000" y="3.1750" width="1.0583" height="1.0583" />
<rect x="2.1167" y="3.1750" width="1.0583" height="1.0583" />
<rect x="3.1750" y="3.1750" width="1.0583" height="1.0583" />
<rect x="4.2333" y="3.1750" width="1.0583" height="1.0583" />
<rect x="6.3500" y="3.1750" width="1.0583" height="1.0583" />
<rect x="8.4667" y="3.1750" width="1.0583" height="1.0583" />
<rect x="9.5250" y="3.1750" width="1.0583" height="1.0583" />
<rect x="11.6417" y="3.1750" width="1.0583" height="1.0583" />
<rect x="12.7000" y="3.1750" width="1.0583" height="1.0583" />
<rect x="16.9333" y="3.1750" width="1.0583" height="1.0583" />
<rect x="17.9917" y="3.1750" width="1.0583" height="1.0583" />
<rect x="22.2250" y="3.1750" width="1.0583" height="1.0583" />
<rect x="23.2833" y="3.1750" width="1.0583" height="1.0583" />
<rect x="27.5167" y="3.1750" width="1.0583" height="1.0583" />
<rect x="29.6333" y="3.1750" width="1.0583" height="1.0583" />
<rect x="30.6917" y="3.1750" width="1.0583" height="1.0583" />
<rect x="31.7500" y="3.1750" width="1.0583" height="1.0583" />
<rect x="33.8667" y="3.1750" width="1.0583" height="1.0583" />
</g>
<g fill="rgb(0%,0%,0%)">
<rect x="0.0000" y="4.2333" width="1.0583" height="1.0583" />
<rect x="2.1167" y="4.2333" width="1.0583" height="1.0583" />
<rect x="3.1750" y="4.2333" width="1.0583" height="1.0583" />
<rect x="4.2333" y="4.2333" width="1.0583" height="1.0583" />
<rect x="6.3500" y="4.2333" width="1.0583" height="1.0583" />
<rect x="8.4667" y="4.2333" width="1.0583" height="1.0583" />
<rect x="9.5250" y="4.2333" width="1.0583" height="1.0583" />
<rect x="16.9333" y="4.2333" width="1.0583" height="1.0583" />
<rect x="17.9917" y="4.2333" width="1.0583" height="1.0583" />
<rect x="20.1083" y="4.2333" width="1.0583" height="1.0583" />
<rect x="22.2250" y="4.2333" width="1.0583" height="1.0583" />
<rect x="23.2833" y="4.2333" width="1.0583" height="1.0583" />
<rect x="27.5167" y="4.2333" width="1.0583" height="1.0583" />
<rect x="29.6333" y="4.2333" width="1.0583" height="1.0583" />
<rect x="30.6917" y="4.2333" width="1.0583" height="1.0583" />
<rect x="31.7500" y="4.2333" width="1.0583" height="1.0583" />
<rect x="33.8667" y="4.2333" width="1.0583" height="1.0583" />
</g>
<g fill="rgb(0%,0%,0%)">
<rect x="0.0000" y="5.2917" width="1.0583" height="1.0583" />
<rect x="6.3500" y="5.2917" width="1.0583" height="1.0583" />
<rect x="8.4667" y="5.2917" width="1.0583" height="1.0583" />
<rect x="9.5250" y="5.2917" width="1.0583" height="1.0583" />
<rect x="10.5833" y="5.2917" width="1.0583" height="1.0583" />
<rect x="12.7000" y="5.2917" width="1.0583" height="1.0583" />
<rect x="15.8750" y="5.2917" width="1.0583" height="1.0583" />
<rect x="17.9917" y="5.2917" width="1.0583" height="1.0583" />
<rect x="21.1667" y="5.2917" width="1.0583" height="1.0583" />
<rect x="22.2250" y="5.2917" width="1.0583" height="1.0583" />
<rect x="23.2833" y="5.2917" width="1.0583" height="1.0583" />
<rect x="24.3417" y="5.2917" width="1.0583" height="1.0583" />
<rect x="25.4000" y="5.2917" width="1.0583" height="1.0583" />
<rect x="27.5167" y="5.2917" width="1.0583" height="1.0583" />
<rect x="33.8667" y="5.2917" width="1.0583" height="1.0583" />
</g>
<g fill="rgb(0%,0%,0%)">
<rect x="0.0000" y="6.3500" width="1.0583" height="1.0583" />
<rect x="1.0583" y="6.3500" width="1.0583" height="1.0583" />
<rect x="2.1167" y="6.3500" width="1.0583" height="1.0583" />
<rect x="3.1750" y="6.3500" width="1.0583" height="1.0583" />
<rect x="4.2333" y="6.3500" width="1.0583" height="1.0583" />
<rect x="5.2917" y="6.3500" width="1.0583" height="1.0583" />
<rect x="6.3500" y="6.3500" width="1.0583" height="1.0583" />
<rect x="8.4667" y="6.3500" width="1.0583" height="1.0583" />
<rect x="10.5833" y="6.3500" width="1.0583" height="1.0583" />
<rect x="12.7000" y="6.3500" width="1.0583" height="1.0583" />
<rect x="14.8167" y="6.3500" width="1.0583" height="1.0583" />
<rect x="16.9333" y="6.3500" width="1.0583" height="1.0583" />
<rect x="19.0500" y="6.3500" width="1.0583" height="1.0583" />
<rect x="21.1667" y="6.3500" width="1.0583" height="1.0583" />
<rect x="23.2833" y="6.3500" width="1.0583" height="1.0583" />
<rect x="25.4000" y="6.3500" width="1.0583" height="1.0583" />
<rect x="27.5167" y="6.3500" width="1.0583" height="1.0583" />
<rect x="28.5750" y="6.3500" width="1.0583" height="1.0583" />
<rect x="29.6333" y="6.3500" width="1.0583" height="1.0583" />
<rect x="30.6917" y="6.3500" width="1.0583" height="1.0583" />
<rect x="31.7500" y="6.3500" width="1.0583" height="1.0583" />
<rect x="32.8083" y="6.3500" width="1.0583" height="1.0583" />
<rect x="33.8667" y="6.3500" width="1.0583" height="1.0583" />
</g>
<g fill="rgb(0%,0%,0%)">
<rect x="8.4667" y="7.4083" width="1.0583" height="1.0583" />
<rect x="11.6417" y="7.4083" width="1.0583" height="1.0583" />
<rect x="14.8167" y="7.4083" width="1.0583" height="1.0583" />
<rect x="17.9917" y="7.4083" width="1.0583" height="1.0583" />
<rect x="19.0500" y="7.4083" width="1.0583" height="1.0583" />
<rect x="20.1083" y="7.4083" width="1.0583" height="1.0583" />
<rect x="21.1667" y="7.4083" width="1.0583" height="1.0583" />
<rect x="22.2250" y="7.4083" width="1.0583" height="1.0583" />
<rect x="25.4000" y="7.4083" width="1.0583" height="1.0583" />
</g>
<g fill="rgb(0%,0%,0%)">
<rect x="0.0000" y="8.4667" width="1.0583" height="1.0583" />
<rect x="4.2333" y="8.4667" width="1.0583" height="1.0583" />
<rect x="6.3500" y="8.4667" width="1.0583" height="1.0583" />
<rect x="7.4083" y="8.4667" width="1.0583" height="1.0583" />
<rect x="8.4667" y="8.4667" width="1.0583" height="1.0583" />
<rect x="10.5833" y="8.4667" width="1.0583" height="1.0583" />
<rect x="12.7000" y="8.4667" width="1.0583" height="1.0583" />
<rect x="15.8750" y="8.4667" width="1.0583" height="1.0583" />
<rect x="17.9917" y="8.4667" width="1.0583" height="1.0583" />
<rect x="21.1667" y="8.4667" width="1.0583" height="1.0583" />
<rect x="22.2250" y="8.4667" width="1.0583" height="1.0583" />
<rect x="23.2833" y="8.4667" width="1.0583" height="1.0583" />
<rect x="24.3417" y="8.4667" width="1.0583" height="1.0583" />
<rect x="26.4583" y="8.4667" width="1.0583" height="1.0583" />
<rect x="27.5167" y="8.4667" width="1.0583" height="1.0583" />
<rect x="28.5750" y="8.4667" width="1.0583" height="1.0583" />
<rect x="29.6333" y="8.4667" width="1.0583" height="1.0583" />
<rect x="30.6917" y="8.4667" width="1.0583" height="1.0583" />
<rect x="33.8667" y="8.4667" width="1.0583" height="1.0583" />
</g>
<g fill="rgb(0%,0%,0%)">
<rect x="1.0583" y="9.5250" width="1.0583" height="1.0583" />
<rect x="5.2917" y="9.5250" width="1.0583" height="1.0583" />
<rect x="7.4083" y="9.5250" width="1.0583" height="1.0583" />
<rect x="10.5833" y="9.5250" width="1.0583" height="1.0583" />
<rect x="11.6417" y="9.5250" width="1.0583" height="1.0583" />
<rect x="15.8750" y="9.5250" width="1.0583" height="1.0583" />
<rect x="16.9333" y="9.5250" width="1.0583" height="1.0583" />
<rect x="17.9917" y="9.5250" width="1.0583" height="1.0583" />
<rect x="19.0500" y="9.5250" width="1.0583" height="1.0583" />
<rect x="22.2250" y="9.5250" width="1.0583" height="1.0583" />
<rect x="23.2833" y="9.5250" width="1.0583" height="1.0583" />
<rect x="24.3417" y="9.5250" width="1.0583" height="1.0583" />
<rect x="26.4583" y="9.5250" width="1.0583" height="1.0583" />
<rect x="30.6917" y="9.5250" width="1.0583" height="1.0583" />
<rect x="31.7500" y="9.5250" width="1.0583" height="1.0583" />
<rect x="33.8667" y="9.5250" width="1.0583" height="1.0583" />
</g>
<g fill="rgb(0%,0%,0%)">
<rect x="0.0000" y="10.5833" width="1.0583" height="1.0583" />
<rect x="2.1167" y="10.5833" width="1.0583" height="1.0583" />
<rect x="4.2333" y="10.5833" width="1.0583" height="1.0583" />
<rect x="5.2917" y="10.5833" width="1.0583" height="1.0583" />
<rect x="6.3500" y="10.5833" width="1.0583" height="1.0583" />
<rect x="7.4083" y="10.5833" width="1.0583" height="1.0583" />
<rect x="8.4667" y="10.5833" width="1.0583" height="1.0583" />
<rect x="13.7583" y="10.5833" width="1.0583" height="1.0583" />
<rect x="14.8167" y="10.5833" width="1.0583" height="1.0583" />
<rect x="15.8750" y="10.5833" width="1.0583" height="1.0583" />
<rect x="19.0500" y="10.5833" width="1.0583" height="1.0583" />
<rect x="24.3417" y="10.5833" width="1.0583" height="1.0583" />
<rect x="26.4583" y="10.5833" width="1.0583" height="1.0583" />
<rect x="30.6917" y="10.5833" width="1.0583" height="1.0583" />
<rect x="32.8083" y="10.5833" width="1.0583" height="1.0583" />
</g>
<g fill="rgb(0%,0%,0%)">
<rect x="2.1167" y="11.6417" width="1.0583" height="1.0583" />
<rect x="4.2333" y="11.6417" width="1.0583" height="1.0583" />
<rect x="7.4083" y="11.6417" width="1.0583" height="1.0583" />
<rect x="10.5833" y="11.6417" width="1.0583" height="1.0583" />
<rect x="12.7000" y="11.6417" width="1.0583" height="1.0583" />
<rect x="13.7583" y="11.6417" width="1.0583" height="1.0583" />
<rect x="16.9333" y="11.6417" width="1.0583" height="1.0583" />
<rect x="20.1083" y="11.6417" width="1.0583" height="1.0583" />
<rect x="21.1667" y="11.6417" width="1.0583" height="1.0583" />
<rect x="23.2833" y="11.6417" width="1.0583" height="1.0583" />
<rect x="25.4000" y="11.6417" width="1.0583" height="1.0583" />
<rect x="26.4583" y="11.6417" width="1.0583" height="1.0583" />
<rect x="27.5167" y="11.6417" width="1.0583" height="1.0583" />
</g>
<g fill="rgb(0%,0%,0%)">
<rect x="0.0000" y="12.7000" width="1.0583" height="1.0583" />
<rect x="2.1167" y="12.7000" width="1.0583" height="1.0583" />
<rect x="3.1750" y="12.7000" width="1.0583" height="1.0583" />
<rect x="6.3500" y="12.7000" width="1.0583" height="1.0583" />
<rect x="8.4667" y="12.7000" width="1.0583" height="1.0583" />
<rect x="10.5833" y="12.7000" width="1.0583" height="1.0583" />
<rect x="12.7000" y="12.7000" width="1.0583" height="1.0583" />
<rect x="13.7583" y="12.7000" width="1.0583" height="1.0583" />
<rect x="16.9333" y="12.7000" width="1.0583" height="1.0583" />
<rect x="23.2833" y="12.7000" width="1.0583" height="1.0583" />
<rect x="24.3417" y="12.7000" width="1.0583" height="1.0583" />
<rect x="25.4000" y="12.7000" width="1.0583" height="1.0583" />
<rect x="27.5167" y="12.7000" width="1.0583" height="1.0583" />
<rect x="28.5750" y="12.7000" width="1.0583" height="1.0583" />
<rect x="30.6917" y="12.7000" width="1.0583" height="1.0583" />
<rect x="33.8667" y="12.7000" width="1.0583" height="1.0583" />
</g>
<g fill="rgb(0%,0%,0%)">
<rect x="0.0000" y="13.7583" width="1.0583" height="1.0583" />
<rect x="2.1167" y="13.7583" width="1.0583" height="1.0583" />
<rect x="3.1750" y="13.7583" width="1.0583" height="1.0583" />
<rect x="4.2333" y="13.7583" width="1.0583" height="1.0583" />
<rect x="5.2917" y="13.7583" width="1.0583" height="1.0583" />
<rect x="7.4083" y="13.7583" width="1.0583" height="1.0583" />
<rect x="10.5833" y="13.7583" width="1.0583" height="1.0583" />
<rect x="11.6417" y="13.7583" width="1.0583" height="1.0583" />
<rect x="14.8167" y="13.7583" width="1.0583" height="1.0583" />
<rect x="17.9917" y="13.7583" width="1.0583" height="1.0583" />
<rect x="19.0500" y="13.7583" width="1.0583" height="1.0583" />
<rect x="20.1083" y="13.7583" width="1.0583" height="1.0583" />
<rect x="21.1667" y="13.7583" width="1.0583" height="1.0583" />
<rect x="25.4000" y="13.7583" width="1.0583" height="1.0583" />
<rect x="26.4583" y="13.7583" width="1.0583" height="1.0583" />
<rect x="28.5750" y="13.7583" width="1.0583" height="1.0583" />
<rect x="31.7500" y="13.7583" width="1.0583" height="1.0583" />
</g>
<g fill="rgb(0%,0%,0%)">
<rect x="2.1167" y="14.8167" width="1.0583" height="1.0583" />
<rect x="4.2333" y="14.8167" width="1.0583" height="1.0583" />
<rect x="5.2917" y="14.8167" width="1.0583" height="1.0583" />
<rect x="6.3500" y="14.8167" width="1.0583" height="1.0583" />
<rect x="10.5833" y="14.8167" width="1.0583" height="1.0583" />
<rect x="11.6417" y="14.8167" width="1.0583" height="1.0583" />
<rect x="12.7000" y="14.8167" width="1.0583" height="1.0583" />
<rect x="14.8167" y="14.8167" width="1.0583" height="1.0583" />
<rect x="15.8750" y="14.8167" width="1.0583" height="1.0583" />
<rect x="17.9917" y="14.8167" width="1.0583" height="1.0583" />
<rect x="19.0500" y="14.8167" width="1.0583" height="1.0583" />
<rect x="21.1667" y="14.8167" width="1.0583" height="1.0583" />
<rect x="22.2250" y="14.8167" width="1.0583" height="1.0583" />
<rect x="24.3417" y="14.8167" width="1.0583" height="1.0583" />
<rect x="25.4000" y="14.8167" width="1.0583" height="1.0583" />
<rect x="26.4583" y="14.8167" width="1.0583" height="1.0583" />
<rect x="27.5167" y="14.8167" width="1.0583" height="1.0583" />
<rect x="29.6333" y="14.8167" width="1.0583" height="1.0583" />
<rect x="32.8083" y="14.8167" width="1.0583" height="1.0583" />
</g>
<g fill="rgb(0%,0%,0%)">
<rect x="0.0000" y="15.8750" width="1.0583" height="1.0583" />
<rect x="1.0583" y="15.8750" width="1.0583" height="1.0583" />
<rect x="2.1167" y="15.8750" width="1.0583" height="1.0583" />
<rect x="3.1750" y="15.8750" width="1.0583" height="1.0583" />
<rect x="4.2333" y="15.8750" width="1.0583" height="1.0583" />
<rect x="7.4083" y="15.8750" width="1.0583" height="1.0583" />
<rect x="10.5833" y="15.8750" width="1.0583" height="1.0583" />
<rect x="11.6417" y="15.8750" width="1.0583" height="1.0583" />
<rect x="13.7583" y="15.8750" width="1.0583" height="1.0583" />
<rect x="14.8167" y="15.8750" width="1.0583" height="1.0583" />
<rect x="15.8750" y="15.8750" width="1.0583" height="1.0583" />
<rect x="16.9333" y="15.8750" width="1.0583" height="1.0583" />
<rect x="17.9917" y="15.8750" width="1.0583" height="1.0583" />
<rect x="19.0500" y="15.8750" width="1.0583" height="1.0583" />
<rect x="22.2250" y="15.8750" width="1.0583" height="1.0583" />
<rect x="24.3417" y="15.8750" width="1.0583" height="1.0583" />
<rect x="26.4583" y="15.8750" width="1.0583" height="1.0583" />
<rect x="27.5167" y="15.8750" width="1.0583" height="1.0583" />
<rect x="28.5750" y="15.8750" width="1.0583" height="1.0583" />
</g>
<g fill="rgb(0%,0%,0%)">
<rect x="0.0000" y="16.9333" width="1.0583" height="1.0583" />
<rect x="1.0583" y="16.9333" width="1.0583" height="1.0583" />
<rect x="3.1750" y="16.9333" width="1.0583" height="1.0583" />
<rect x="4.2333" y="16.9333" width="1.0583" height="1.0583" />
<rect x="5.2917" y="16.9333" width="1.0583" height="1.0583" />
<rect x="6.3500" y="16.9333" width="1.0583" height="1.0583" />
<rect x="8.4667" y="16.9333" width="1.0583" height="1.0583" />
<rect x="9.5250" y="16.9333" width="1.0583" height="1.0583" />
<rect x="12.7000" y="16.9333" width="1.0583" height="1.0583" />
<rect x="17.9917" y="16.9333" width="1.0583" height="1.0583" />
<rect x="19.0500" y="16.9333" width="1.0583" height="1.0583" />
<rect x="20.1083" y="16.9333" width="1.0583" height="1.0583" />
<rect x="21.1667" y="16.9333" width="1.0583" height="1.0583" />
<rect x="22.2250" y="16.9333" width="1.0583" height="1.0583" />
<rect x="23.2833" y="16.9333" width="1.0583" height="1.0583" />
<rect x="25.4000" y="16.9333" width="1.0583" height="1.0583" />
<rect x="27.5167" y="16.9333" width="1.0583" height="1.0583" />
<rect x="29.6333" y="16.9333" width="1.0583" height="1.0583" />
<rect x="30.6917" y="16.9333" width="1.0583" height="1.0583" />
<rect x="32.8083" y="16.9333" width="1.0583" height="1.0583" />
</g>
<g fill="rgb(0%,0%,0%)">
<rect x="0.0000" y="17.9917" width="1.0583" height="1.0583" />
<rect x="1.0583" y="17.9917" width="1.0583" height="1.0583" />
<rect x="4.2333" y="17.9917" width="1.0583" height="1.0583" />
<rect x="5.2917" y="17.9917" width="1.0583" height="1.0583" />
<rect x="7.4083" y="17.9917" width="1.0583" height="1.0583" />
<rect x="8.4667" y="17.9917" width="1.0583" height="1.0583" />
<rect x="9.5250" y="17.9917" width="1.0583" height="1.0583" />
<rect x="10.5833" y="17.9917" width="1.0583" height="1.0583" />
<rect x="15.8750" y="17.9917" width="1.0583" height="1.0583" />
<rect x="16.9333" y="17.9917" width="1.0583" height="1.0583" />
<rect x="19.0500" y="17.9917" width="1.0583" height="1.0583" />
<rect x="21.1667" y="17.9917" width="1.0583" height="1.0583" />
<rect x="23.2833" y="17.9917" width="1.0583" height="1.0583" />
<rect x="24.3417" y="17.9917" width="1.0583" height="1.0583" />
<rect x="25.4000" y="17.9917" width="1.0583" height="1.0583" />
<rect x="30.6917" y="17.9917" width="1.0583" height="1.0583" />
<rect x="31.7500" y="17.9917" width="1.0583" height="1.0583" />
<rect x="32.8083" y="17.9917" width="1.0583" height="1.0583" />
</g>
<g fill="rgb(0%,0%,0%)">
<rect x="0.0000" y="19.0500" width="1.0583" height="1.0583" />
<rect x="2.1167" y="19.0500" width="1.0583" height="1.0583" />
<rect x="3.1750" y="19.0500" width="1.0583" height="1.0583" />
<rect x="4.2333" y="19.0500" width="1.0583" height="1.0583" />
<rect x="6.3500" y="19.0500" width="1.0583" height="1.0583" />
<rect x="7.4083" y="19.0500" width="1.0583" height="1.0583" />
<rect x="10.5833" y="19.0500" width="1.0583" height="1.0583" />
<rect x="12.7000" y="19.0500" width="1.0583" height="1.0583" />
<rect x="13.7583" y="19.0500" width="1.0583" height="1.0583" />
<rect x="15.8750" y="19.0500" width="1.0583" height="1.0583" />
<rect x="16.9333" y="19.0500" width="1.0583" height="1.0583" />
<rect x="17.9917" y="19.0500" width="1.0583" height="1.0583" />
<rect x="21.1667" y="19.0500" width="1.0583" height="1.0583" />
<rect x="22.2250" y="19.0500" width="1.0583" height="1.0583" />
<rect x="23.2833" y="19.0500" width="1.0583" height="1.0583" />
<rect x="24.3417" y="19.0500" width="1.0583" height="1.0583" />
<rect x="25.4000" y="19.0500" width="1.0583" height="1.0583" />
<rect x="26.4583" y="19.0500" width="1.0583" height="1.0583" />
<rect x="28.5750" y="19.0500" width="1.0583" height="1.0583" />
<rect x="30.6917" y="19.0500" width="1.0583" height="1.0583" />
<rect x="32.8083" y="19.0500" width="1.0583" height="1.0583" />
</g>
<g fill="rgb(0%,0%,0%)">
<rect x="1.0583" y="20.1083" width="1.0583" height="1.0583" />
<rect x="2.1167" y="20.1083" width="1.0583" height="1.0583" />
<rect x="4.2333" y="20.1083" width="1.0583" height="1.0583" />
<rect x="7.4083" y="20.1083" width="1.0583" height="1.0583" />
<rect x="10.5833" y="20.1083" width="1.0583" height="1.0583" />
<rect x="12.7000" y="20.1083" width="1.0583" height="1.0583" />
<rect x="13.7583" y="20.1083" width="1.0583" height="1.0583" />
<rect x="15.8750" y="20.1083" width="1.0583" height="1.0583" />
<rect x="17.9917" y="20.1083" width="1.0583" height="1.0583" />
<rect x="19.0500" y="20.1083" width="1.0583" height="1.0583" />
<rect x="21.1667" y="20.1083" width="1.0583" height="1.0583" />
<rect x="22.2250" y="20.1083" width="1.0583" height="1.0583" />
<rect x="25.4000" y="20.1083" width="1.0583" height="1.0583" />
<rect x="26.4583" y="20.1083" width="1.0583" height="1.0583" />
<rect x="27.5167" y="20.1083" width="1.0583" height="1.0583" />
<rect x="28.5750" y="20.1083" width="1.0583" height="1.0583" />
<rect x="32.8083" y="20.1083" width="1.0583" height="1.0583" />
</g>
<g fill="rgb(0%,0%,0%)">
<rect x="0.0000" y="21.1667" width="1.0583" height="1.0583" />
<rect x="2.1167" y="21.1667" width="1.0583" height="1.0583" />
<rect x="5.2917" y="21.1667" width="1.0583" height="1.0583" />
<rect x="6.3500" y="21.1667" width="1.0583" height="1.0583" />
<rect x="7.4083" y="21.1667" width="1.0583" height="1.0583" />
<rect x="9.5250" y="21.1667" width="1.0583" height="1.0583" />
<rect x="11.6417" y="21.1667" width="1.0583" height="1.0583" />
<rect x="13.7583" y="21.1667" width="1.0583" height="1.0583" />
<rect x="14.8167" y="21.1667" width="1.0583" height="1.0583" />
<rect x="19.0500" y="21.1667" width="1.0583" height="1.0583" />
<rect x="20.1083" y="21.1667" width="1.0583" height="1.0583" />
<rect x="21.1667" y="21.1667" width="1.0583" height="1.0583" />
<rect x="27.5167" y="21.1667" width="1.0583" height="1.0583" />
<rect x="28.5750" y="21.1667" width="1.0583" height="1.0583" />
<rect x="29.6333" y="21.1667" width="1.0583" height="1.0583" />
<rect x="30.6917" y="21.1667" width="1.0583" height="1.0583" />
</g>
<g fill="rgb(0%,0%,0%)">
<rect x="0.0000" y="22.2250" width="1.0583" height="1.0583" />
<rect x="3.1750" y="22.2250" width="1.0583" height="1.0583" />
<rect x="5.2917" y="22.2250" width="1.0583" height="1.0583" />
<rect x="12.7000" y="22.2250" width="1.0583" height="1.0583" />
<rect x="16.9333" y="22.2250" width="1.0583" height="1.0583" />
<rect x="17.9917" y="22.2250" width="1.0583" height="1.0583" />
<rect x="20.1083" y="22.2250" width="1.0583" height="1.0583" />
<rect x="23.2833" y="22.2250" width="1.0583" height="1.0583" />
<rect x="27.5167" y="22.2250" width="1.0583" height="1.0583" />
<rect x="30.6917" y="22.2250" width="1.0583" height="1.0583" />
<rect x="31.7500" y="22.2250" width="1.0583" height="1.0583" />
<rect x="32.8083" y="22.2250" width="1.0583" height="1.0583" />
</g>
<g fill="rgb(0%,0%,0%)">
<rect x="4.2333" y="23.2833" width="1.0583" height="1.0583" />
<rect x="5.2917" y="23.2833" width="1.0583" height="1.0583" />
<rect x="6.3500" y="23.2833" width="1.0583" height="1.0583" />
<rect x="7.4083" y="23.2833" width="1.0583" height="1.0583" />
<rect x="11.6417" y="23.2833" width="1.0583" height="1.0583" />
<rect x="12.7000" y="23.2833" width="1.0583" height="1.0583" />
<rect x="14.8167" y="23.2833" width="1.0583" height="1.0583" />
<rect x="16.9333" y="23.2833" width="1.0583" height="1.0583" />
<rect x="19.0500" y="23.2833" width="1.0583" height="1.0583" />
<rect x="20.1083" y="23.2833" width="1.0583" height="1.0583" />
<rect x="22.2250" y="23.2833" width="1.0583" height="1.0583" />
<rect x="24.3417" y="23.2833" width="1.0583" height="1.0583" />
<rect x="25.4000" y="23.2833" width="1.0583" height="1.0583" />
<rect x="26.4583" y="23.2833" width="1.0583" height="1.0583" />
<rect x="31.7500" y="23.2833" width="1.0583" height="1.0583" />
<rect x="32.8083" y="23.2833" width="1.0583" height="1.0583" />
</g>
<g fill="rgb(0%,0%,0%)">
<rect x="3.1750" y="24.3417" width="1.0583" height="1.0583" />
<rect x="4.2333" y="24.3417" width="1.0583" height="1.0583" />
<rect x="5.2917" y="24.3417" width="1.0583" height="1.0583" />
<rect x="7.4083" y="24.3417" width="1.0583" height="1.0583" />
<rect x="8.4667" y="24.3417" width="1.0583" height="1.0583" />
<rect x="10.5833" y="24.3417" width="1.0583" height="1.0583" />
<rect x="13.7583" y="24.3417" width="1.0583" height="1.0583" />
<rect x="17.9917" y="24.3417" width="1.0583" height="1.0583" />
<rect x="19.0500" y="24.3417" width="1.0583" height="1.0583" />
<rect x="20.1083" y="24.3417" width="1.0583" height="1.0583" />
<rect x="21.1667" y="24.3417" width="1.0583" height="1.0583" />
<rect x="22.2250" y="24.3417" width="1.0583" height="1.0583" />
<rect x="23.2833" y="24.3417" width="1.0583" height="1.0583" />
<rect x="26.4583" y="24.3417" width="1.0583" height="1.0583" />
<rect x="27.5167" y="24.3417" width="1.0583" height="1.0583" />
<rect x="29.6333" y="24.3417" width="1.0583" height="1.0583" />
<rect x="30.6917" y="24.3417" width="1.0583" height="1.0583" />
<rect x="32.8083" y="24.3417" width="1.0583" height="1.0583" />
<rect x="33.8667" y="24.3417" width="1.0583" height="1.0583" />
</g>
<g fill="rgb(0%,0%,0%)">
<rect x="0.0000" y="25.4000" width="1.0583" height="1.0583" />
<rect x="1.0583" y="25.4000" width="1.0583" height="1.0583" />
<rect x="2.1167" y="25.4000" width="1.0583" height="1.0583" />
<rect x="4.2333" y="25.4000" width="1.0583" height="1.0583" />
<rect x="6.3500" y="25.4000" width="1.0583" height="1.0583" />
<rect x="7.4083" y="25.4000" width="1.0583" height="1.0583" />
<rect x="10.5833" y="25.4000" width="1.0583" height="1.0583" />
<rect x="11.6417" y="25.4000" width="1.0583" height="1.0583" />
<rect x="13.7583" y="25.4000" width="1.0583" height="1.0583" />
<rect x="14.8167" y="25.4000" width="1.0583" height="1.0583" />
<rect x="15.8750" y="25.4000" width="1.0583" height="1.0583" />
<rect x="16.9333" y="25.4000" width="1.0583" height="1.0583" />
<rect x="17.9917" y="25.4000" width="1.0583" height="1.0583" />
<rect x="21.1667" y="25.4000" width="1.0583" height="1.0583" />
<rect x="22.2250" y="25.4000" width="1.0583" height="1.0583" />
<rect x="23.2833" y="25.4000" width="1.0583" height="1.0583" />
<rect x="25.4000" y="25.4000" width="1.0583" height="1.0583" />
<rect x="26.4583" y="25.4000" width="1.0583" height="1.0583" />
<rect x="27.5167" y="25.4000" width="1.0583" height="1.0583" />
<rect x="28.5750" y="25.4000" width="1.0583" height="1.0583" />
<rect x="29.6333" y="25.4000" width="1.0583" height="1.0583" />
<rect x="30.6917" y="25.4000" width="1.0583" height="1.0583" />
<rect x="32.8083" y="25.4000" width="1.0583" height="1.0583" />
</g>
<g fill="rgb(0%,0%,0%)">
<rect x="8.4667" y="26.4583" width="1.0583" height="1.0583" />
<rect x="10.5833" y="26.4583" width="1.0583" height="1.0583" />
<rect x="11.6417" y="26.4583" width="1.0583" height="1.0583" />
<rect x="13.7583" y="26.4583" width="1.0583" height="1.0583" />
<rect x="14.8167" y="26.4583" width="1.0583" height="1.0583" />
<rect x="15.8750" y="26.4583" width="1.0583" height="1.0583" />
<rect x="16.9333" y="26.4583" width="1.0583" height="1.0583" />
<rect x="17.9917" y="26.4583" width="1.0583" height="1.0583" />
<rect x="22.2250" y="26.4583" width="1.0583" height="1.0583" />
<rect x="23.2833" y="26.4583" width="1.0583" height="1.0583" />
<rect x="24.3417" y="26.4583" width="1.0583" height="1.0583" />
<rect x="25.4000" y="26.4583" width="1.0583" height="1.0583" />
<rect x="29.6333" y="26.4583" width="1.0583" height="1.0583" />
<rect x="31.7500" y="26.4583" width="1.0583" height="1.0583" />
</g>
<g fill="rgb(0%,0%,0%)">
<rect x="0.0000" y="27.5167" width="1.0583" height="1.0583" />
<rect x="1.0583" y="27.5167" width="1.0583" height="1.0583" />
<rect x="2.1167" y="27.5167" width="1.0583" height="1.0583" />
<rect x="3.1750" y="27.5167" width="1.0583" height="1.0583" />
<rect x="4.2333" y="27.5167" width="1.0583" height="1.0583" />
<rect x="5.2917" y="27.5167" width="1.0583" height="1.0583" />
<rect x="6.3500" y="27.5167" width="1.0583" height="1.0583" />
<rect x="8.4667" y="27.5167" width="1.0583" height="1.0583" />
<rect x="9.5250" y="27.5167" width="1.0583" height="1.0583" />
<rect x="10.5833" y="27.5167" width="1.0583" height="1.0583" />
<rect x="14.8167" y="27.5167" width="1.0583" height="1.0583" />
<rect x="15.8750" y="27.5167" width="1.0583" height="1.0583" />
<rect x="19.0500" y="27.5167" width="1.0583" height="1.0583" />
<rect x="25.4000" y="27.5167" width="1.0583" height="1.0583" />
<rect x="27.5167" y="27.5167" width="1.0583" height="1.0583" />
<rect x="29.6333" y="27.5167" width="1.0583" height="1.0583" />
<rect x="30.6917" y="27.5167" width="1.0583" height="1.0583" />
</g>
<g fill="rgb(0%,0%,0%)">
<rect x="0.0000" y="28.5750" width="1.0583" height="1.0583" />
<rect x="6.3500" y="28.5750" width="1.0583" height="1.0583" />
<rect x="11.6417" y="28.5750" width="1.0583" height="1.0583" />
<rect x="14.8167" y="28.5750" width="1.0583" height="1.0583" />
<rect x="15.8750" y="28.5750" width="1.0583" height="1.0583" />
<rect x="16.9333" y="28.5750" width="1.0583" height="1.0583" />
<rect x="20.1083" y="28.5750" width="1.0583" height="1.0583" />
<rect x="23.2833" y="28.5750" width="1.0583" height="1.0583" />
<rect x="25.4000" y="28.5750" width="1.0583" height="1.0583" />
<rect x="29.6333" y="28.5750" width="1.0583" height="1.0583" />
<rect x="33.8667" y="28.5750" width="1.0583" height="1.0583" />
</g>
<g fill="rgb(0%,0%,0%)">
<rect x="0.0000" y="29.6333" width="1.0583" height="1.0583" />
<rect x="2.1167" y="29.6333" width="1.0583" height="1.0583" />
<rect x="3.1750" y="29.6333" width="1.0583" height="1.0583" />
<rect x="4.2333" y="29.6333" width="1.0583" height="1.0583" />
<rect x="6.3500" y="29.6333" width="1.0583" height="1.0583" />
<rect x="8.4667" y="29.6333" width="1.0583" height="1.0583" />
<rect x="11.6417" y="29.6333" width="1.0583" height="1.0583" />
<rect x="12.7000" y="29.6333" width="1.0583" height="1.0583" />
<rect x="13.7583" y="29.6333" width="1.0583" height="1.0583" />
<rect x="14.8167" y="29.6333" width="1.0583" height="1.0583" />
<rect x="16.9333" y="29.6333" width="1.0583" height="1.0583" />
<rect x="20.1083" y="29.6333" width="1.0583" height="1.0583" />
<rect x="23.2833" y="29.6333" width="1.0583" height="1.0583" />
<rect x="25.4000" y="29.6333" width="1.0583" height="1.0583" />
<rect x="26.4583" y="29.6333" width="1.0583" height="1.0583" />
<rect x="27.5167" y="29.6333" width="1.0583" height="1.0583" />
<rect x="28.5750" y="29.6333" width="1.0583" height="1.0583" />
<rect x="29.6333" y="29.6333" width="1.0583" height="1.0583" />
<rect x="30.6917" y="29.6333" width="1.0583" height="1.0583" />
<rect x="33.8667" y="29.6333" width="1.0583" height="1.0583" />
</g>
<g fill="rgb(0%,0%,0%)">
<rect x="0.0000" y="30.6917" width="1.0583" height="1.0583" />
<rect x="2.1167" y="30.6917" width="1.0583" height="1.0583" />
<rect x="3.1750" y="30.6917" width="1.0583" height="1.0583" />
<rect x="4.2333" y="30.6917" width="1.0583" height="1.0583" />
<rect x="6.3500" y="30.6917" width="1.0583" height="1.0583" />
<rect x="9.5250" y="30.6917" width="1.0583" height="1.0583" />
<rect x="10.5833" y="30.6917" width="1.0583" height="1.0583" />
<rect x="12.7000" y="30.6917" width="1.0583" height="1.0583" />
<rect x="13.7583" y="30.6917" width="1.0583" height="1.0583" />
<rect x="19.0500" y="30.6917" width="1.0583" height="1.0583" />
<rect x="20.1083" y="30.6917" width="1.0583" height="1.0583" />
<rect x="21.1667" y="30.6917" width="1.0583" height="1.0583" />
<rect x="24.3417" y="30.6917" width="1.0583" height="1.0583" />
<rect x="27.5167" y="30.6917" width="1.0583" height="1.0583" />
<rect x="28.5750" y="30.6917" width="1.0583" height="1.0583" />
<rect x="29.6333" y="30.6917" width="1.0583" height="1.0583" />
<rect x="30.6917" y="30.6917" width="1.0583" height="1.0583" />
<rect x="31.7500" y="30.6917" width="1.0583" height="1.0583" />
<rect x="32.8083" y="30.6917" width="1.0583" height="1.0583" />
</g>
<g fill="rgb(0%,0%,0%)">
<rect x="0.0000" y="31.7500" width="1.0583" height="1.0583" />
<rect x="2.1167" y="31.7500" width="1.0583" height="1.0583" />
<rect x="3.1750" y="31.7500" width="1.0583" height="1.0583" />
<rect x="4.2333" y="31.7500" width="1.0583" height="1.0583" />
<rect x="6.3500" y="31.7500" width="1.0583" height="1.0583" />
<rect x="9.5250" y="31.7500" width="1.0583" height="1.0583" />
<rect x="12.7000" y="31.7500" width="1.0583" height="1.0583" />
<rect x="14.8167" y="31.7500" width="1.0583" height="1.0583" />
<rect x="15.8750" y="31.7500" width="1.0583" height="1.0583" />
<rect x="19.0500" y="31.7500" width="1.0583" height="1.0583" />
<rect x="21.1667" y="31.7500" width="1.0583" height="1.0583" />
<rect x="22.2250" y="31.7500" width="1.0583" height="1.0583" />
<rect x="26.4583" y="31.7500" width="1.0583" height="1.0583" />
<rect x="27.5167" y="31.7500" width="1.0583" height="1.0583" />
<rect x="28.5750" y="31.7500" width="1.0583" height="1.0583" />
<rect x="29.6333" y="31.7500" width="1.0583" height="1.0583" />
<rect x="30.6917" y="31.7500" width="1.0583" height="1.0583" />
</g>
<g fill="rgb(0%,0%,0%)">
<rect x="0.0000" y="32.8083" width="1.0583" height="1.0583" />
<rect x="6.3500" y="32.8083" width="1.0583" height="1.0583" />
<rect x="11.6417" y="32.8083" width="1.0583" height="1.0583" />
<rect x="12.7000" y="32.8083" width="1.0583" height="1.0583" />
<rect x="13.7583" y="32.8083" width="1.0583" height="1.0583" />
<rect x="15.8750" y="32.8083" width="1.0583" height="1.0583" />
<rect x="16.9333" y="32.8083" width="1.0583" height="1.0583" />
<rect x="17.9917" y="32.8083" width="1.0583" height="1.0583" />
<rect x="19.0500" y="32.8083" width="1.0583" height="1.0583" />
<rect x="22.2250" y="32.8083" width="1.0583" height="1.0583" />
<rect x="24.3417" y="32.8083" width="1.0583" height="1.0583" />
<rect x="25.4000" y="32.8083" width="1.0583" height="1.0583" />
<rect x="27.5167" y="32.8083" width="1.0583" height="1.0583" />
</g>
<g fill="rgb(0%,0%,0%)">
<rect x="0.0000" y="33.8667" width="1.0583" height="1.0583" />
<rect x="1.0583" y="33.8667" width="1.0583" height="1.0583" />
<rect x="2.1167" y="33.8667" width="1.0583" height="1.0583" />
<rect x="3.1750" y="33.8667" width="1.0583" height="1.0583" />
<rect x="4.2333" y="33.8667" width="1.0583" height="1.0583" />
<rect x="5.2917" y="33.8667" width="1.0583" height="1.0583" />
<rect x="6.3500" y="33.8667" width="1.0583" height="1.0583" />
<rect x="8.4667" y="33.8667" width="1.0583" height="1.0583" />
<rect x="10.5833" y="33.8667" width="1.0583" height="1.0583" />
<rect x="17.9917" y="33.8667" width="1.0583" height="1.0583" />
<rect x="20.1083" y="33.8667" width="1.0583" height="1.0583" />
<rect x="21.1667" y="33.8667" width="1.0583" height="1.0583" />
<rect x="22.2250" y="33.8667" width="1.0583" height="1.0583" />
<rect x="23.2833" y="33.8667" width="1.0583" height="1.0583" />
<rect x="24.3417" y="33.8667" width="1.0583" height="1.0583" />
<rect x="25.4000" y="33.8667" width="1.0583" height="1.0583" />
<rect x="26.4583" y="33.8667" width="1.0583" height="1.0583" />
<rect x="27.5167" y="33.8667" width="1.0583" height="1.0583" />
<rect x="30.6917" y="33.8667" width="1.0583" height="1.0583" />
<rect x="33.8667" y="33.8667" width="1.0583" height="1.0583" />
</g>
</svg>
